<svg width="233" height="61" viewBox="0 0 233 61" fill="none" xmlns="http://www.w3.org/2000/svg">
<g clip-path="url(#clip0_111_1830)">
<path d="M171 4.36971C171 1.95765 173.052 0 175.582 0H228.418C230.949 0 233 1.95765 233 4.36971V56.6311C233 59.0439 230.949 61 228.418 61H175.582C173.052 61 171 59.0439 171 56.6319V4.36891V4.36971Z" fill="#0A66C2"/>
<path d="M0.0317383 51.0965H25.618V42.7907H9.29281V11.1059H0.0317383V51.0965ZM38.5722 51.0965V23.5518H29.3119V51.0965H38.5722ZM33.9429 19.7917C37.1715 19.7917 39.1815 17.6765 39.1815 15.0316C39.1216 12.3291 37.1715 10.2739 34.0044 10.2739C30.8364 10.2739 28.7649 12.3299 28.7649 15.0316C28.7649 17.6765 30.7749 19.7917 33.8822 19.7917H33.9429ZM42.8714 51.0965H52.1316V35.7137C52.1316 34.8905 52.1915 34.0673 52.4367 33.4809C53.1051 31.836 54.6288 30.132 57.1874 30.132C60.539 30.132 61.8798 32.6585 61.8798 36.3594V51.0957H71.1385V35.3025C71.1385 26.8415 66.5698 22.9046 60.4767 22.9046C55.4816 22.9046 53.2879 25.6655 52.0693 27.5463H52.1316V23.5518H42.8714C42.9936 26.1367 42.8714 51.0965 42.8714 51.0965ZM84.2027 11.1059H74.9424V51.0965H84.2027V42.1659L86.5169 39.285L93.7672 51.0965H105.159L92.9758 33.9977L103.636 22.3654H92.4887C92.4887 22.3654 84.8735 32.7721 84.2027 34.0073V11.1059Z" fill="#0A66C2"/>
<path d="M129.923 39.6066C130.045 38.8994 130.228 37.5426 130.228 36.0082C130.228 28.888 126.572 21.659 116.947 21.659C106.651 21.659 101.898 29.7096 101.898 37.0114C101.898 46.042 107.687 51.6814 117.799 51.6814C121.82 51.6814 125.535 51.0957 128.583 49.8613L127.364 43.8148C124.865 44.634 122.307 45.0444 119.14 45.0444C114.815 45.0444 111.038 43.2883 110.733 39.5474L129.923 39.605V39.6066ZM110.672 33.4129C110.916 31.0624 112.501 27.5943 116.46 27.5943C120.663 27.5943 121.639 31.2968 121.639 33.4129H110.673H110.672ZM153.085 11.1059V24.9495H152.963C151.622 23.0118 148.82 21.719 145.105 21.719C137.977 21.719 131.702 27.3591 131.762 36.9946C131.762 45.926 137.429 51.743 144.495 51.743C148.333 51.743 151.988 50.0965 153.816 46.9236H153.998L154.365 51.0965H162.589C162.467 49.1573 162.344 45.8084 162.344 42.5179V11.1051H153.084L153.085 11.1059ZM153.085 38.3466C153.085 39.0506 153.024 39.757 152.901 40.3427C152.355 42.8707 150.161 44.6316 147.48 44.6316C143.643 44.6316 141.145 41.5771 141.145 36.7594C141.145 32.2361 143.278 28.5928 147.542 28.5928C150.405 28.5928 152.415 30.5312 152.963 32.9393C153.085 33.4697 153.085 34.0577 153.085 34.5857V38.3458V38.3466Z" fill="#0A66C2"/>
<path d="M190.761 49.9992V23.0101H181.544V49.9992H190.762H190.761ZM186.154 19.3259C189.368 19.3259 191.369 17.2533 191.369 14.6633C191.308 12.0146 189.368 10 186.215 10C183.06 10 181 12.0146 181 14.6633C181 17.2533 183 19.3259 186.094 19.3259H186.153H186.154ZM195.863 49.9992H205.08V34.9291C205.08 34.1232 205.141 33.3158 205.384 32.7405C206.05 31.128 207.567 29.4591 210.114 29.4591C213.448 29.4591 214.783 31.9338 214.783 35.5624V49.9992H224V34.5246C224 26.235 219.453 22.3775 213.389 22.3775C208.417 22.3775 206.233 25.0819 205.02 26.924H205.081V23.0109H195.864C195.984 25.5428 195.863 50 195.863 50V49.9992Z" fill="white"/>
</g>
<defs>
<clipPath id="clip0_111_1830">
<rect width="233" height="61" fill="white"/>
</clipPath>
</defs>
</svg>
